<svg xmlns="http://www.w3.org/2000/svg" viewBox="0 0 211 160" width="211" height="160"><defs><clipPath clipPathUnits="userSpaceOnUse" id="cp1"><path d="M0 0h211v160H0z"/></clipPath></defs><style>.shp1{fill:#538be8}</style><g id="Impact Logo" clip-path="url(#cp1)"><path id="BACKGROUND" d="M0 0h211v160H0V0z" fill="none"/><path id="In Shape" fill-rule="evenodd" class="shp1" d="M21.67 116V84.5h8.01V116h-8.01zm41.85 0l-.04-20.48-7.56 17.33H50.7l-7.56-17.33V116h-7.15V84.45h8.77l8.55 18.77 8.55-18.77h8.73V116h-7.07zm27.14-31.5c8.05 0 12.69 3.96 12.69 10.98 0 7.38-4.64 11.66-12.69 11.66h-5.71V116h-8.01V84.5h13.72zm-5.71 16.33h5.3c3.51 0 5.54-1.75 5.54-5.08 0-3.28-2.03-4.95-5.54-4.95h-5.3v10.03zm27.4 9.36l-2.3 5.81h-8.23l13.59-31.5h8.23l13.28 31.5h-8.55l-2.25-5.81h-13.77zm6.93-17.72l-4.59 11.65h9.09l-4.5-11.65zm47.16-2.93l-4.64 5.49c-2.07-2.52-5.13-4.09-7.92-4.09-4.99 0-8.77 3.95-8.77 9.13 0 5.26 3.78 9.27 8.77 9.27 2.66 0 5.72-1.44 7.92-3.69l4.68 4.95c-3.37 3.46-8.37 5.76-13 5.76-9.5 0-16.56-6.98-16.56-16.2 0-9.09 7.24-15.93 16.83-15.93 4.68 0 9.54 2.07 12.69 5.31zm18.27 1.4V116h-8.01V90.94h-9.4v-6.49h26.91v6.49h-9.5z"/><g id="Meteorite"><path id="Path 50181" fill-rule="evenodd" class="shp1" d="M126.71 42c0 13.81-11.19 25-25 25s-25-11.19-25-25c0-.52.02-1.03.05-1.53L71 34.71l1.42-1.42 4.63 4.63c.35-2.16 1-4.26 1.91-6.26L71 23.71l1.42-1.42 7.49 7.49c.96-1.7 2.11-3.29 3.44-4.73L72 13.71l1.42-1.42 11.34 11.35c1.44-1.33 3.03-2.48 4.73-3.44L82 12.71l1.42-1.42 7.95 7.96c3.25-1.49 6.77-2.25 10.34-2.25 13.81 0 25 11.19 25 25zm-2 0c-.01-12.7-10.3-22.99-23-23v4.59l3.41 3.41h4.59c.26 0 .52.11.71.29l5 5c.18.19.29.45.29.71v6c0 .27-.11.52-.29.71l-1.71 1.7v3.18l3.71 3.7c.18.19.29.45.29.71v4.59l2.31 2.31c3.05-3.99 4.69-8.88 4.69-13.9zm-23.29 19.29c.18.19.29.45.29.71v3c.68 0 1.35-.04 2.02-.09.02-.23.11-.45.27-.62l2.71-2.7V58c0-.27.1-.52.29-.71l1.71-1.7v-3.18L104.3 48h-7.18l-3.41 3.41v2.18L95.12 55h3.59c.55 0 1 .45 1 1v3.59l1.71 1.7zm5.25 3.17c4.65-1.04 8.87-3.49 12.07-7.02L116 54.71c-.19-.19-.29-.45-.29-.71v-4.59l-3.71-3.7c-.19-.19-.29-.45-.29-.71v-4c0-.27.1-.52.29-.71l1.71-1.7v-5.18L109.3 29h-4.59c-.27 0-.52-.11-.71-.29l-4-4c-.19-.19-.29-.45-.29-.71v-4.91c-6.42.57-12.31 3.8-16.24 8.92.02 0 .03-.01.05-.01h4.42l1.37-4.21a2 2 0 011.9-1.37 2 2 0 011.9 1.37L94.48 28h4.42c.87 0 1.64.56 1.91 1.38.27.83-.03 1.73-.73 2.24l-3.58 2.6 1.37 4.21c.27.82-.02 1.73-.73 2.23-.7.52-1.65.52-2.35 0l-3.58-2.6-3.58 2.6a2.003 2.003 0 01-3.08-2.24l1.37-4.2-3.58-2.6a2 2 0 01-.67-.88A22.904 22.904 0 0084.3 57l1.41-1.41V53c0-.27.1-.52.29-.71l2.71-2.7v-2.18L84 42.71l1.42-1.42 5 5c.18.19.29.45.29.71v3c0 .27-.11.52-.29.71l-2.71 2.7V56c0 .27-.11.52-.29.71l-1.75 1.75c3.79 3.71 8.75 5.99 14.04 6.45v-2.5L98 60.71c-.19-.19-.29-.45-.29-.71v-3h-3c-.27 0-.52-.11-.71-.29l-2-2c-.19-.19-.29-.45-.29-.71v-3c0-.27.1-.52.29-.71l4-4c.19-.18.44-.29.71-.29h8c.26 0 .52.11.71.29l5 5c.18.19.29.45.29.71v4c0 .27-.11.52-.29.71l-1.71 1.7V62c0 .27-.11.52-.29.71l-1.75 1.75zm-12.3-30.31c-.13-.42.02-.86.37-1.12L98.9 30h-5.15c-.43 0-.81-.28-.95-.69l-1.59-4.9v-.01l-1.59 4.91c-.14.41-.52.69-.95.69h-5.15l4.16 3.03c.35.25.5.7.37 1.12l-1.6 4.9 4.17-3.03a.99.99 0 011.18 0l4.16 3.03-1.59-4.9z"/><path id="Path 50182" fill-rule="evenodd" class="shp1" d="M108.71 33v6c0 .27-.11.52-.29.71l-2 2c-.19.18-.45.29-.71.29h-2c-.55 0-1-.45-1-1v-3.59l-1.71-1.7c-.19-.19-.29-.45-.29-.71v-2c0-.55.45-1 1-1h6c.55 0 1 .45 1 1zm-2 1h-4v.59l1.71 1.7c.18.19.29.45.29.71v3h.59l1.41-1.41V34z"/><path id="Path 50183" class="shp1" d="M67 8.71l1.42-1.42 3 3L70 11.71l-3-3z"/><path id="Path 50184" class="shp1" d="M78 8.71l1.41-1.42 2 2L80 10.71l-2-2z"/><path id="Path 50185" class="shp1" d="M67 19.71l1.41-1.42 2 2L69 21.71l-2-2z"/><path id="Path 50186" class="shp1" d="M67 30.71l1.41-1.42 2 2L69 32.7l-2-1.99z"/><path id="Path 50187" class="shp1" d="M119.71 15h2v-2h2v-2h-2V9h-2v2h-2v2h2v2z"/><path id="Path 50188" class="shp1" d="M69.71 57h2v2h-2v-2z"/><path id="Path 50189" class="shp1" d="M79.71 63h2v2h-2v-2z"/><path id="Path 50190" class="shp1" d="M69.71 45h2v2h-2v-2z"/><path id="Path 50191" class="shp1" d="M104.71 7h2v2h-2V7z"/><path id="Path 50192" class="shp1" d="M122.71 21h2v2h-2v-2z"/><path id="Path 50193" class="shp1" d="M96.71 12h2v2h-2v-2z"/></g></g></svg>